<svg xmlns="http://www.w3.org/2000/svg" viewBox="0 0 1067.406 93.974"><path d="M346.052 236.326a47.675 47.675 0 0 0 18.2-3.309 43.729 43.729 0 0 0 14.431-9.3 42.89 42.89 0 0 0 9.527-14.067 43.978 43.978 0 0 0 3.212-12.348 90.6 90.6 0 0 0 .167-12.569h-45.348l-8.073 16.226h32.358a21.348 21.348 0 0 1-8.466 12.541 25.945 25.945 0 0 1-15.783 4.737 27.264 27.264 0 0 1-11.023-2.3 28.477 28.477 0 0 1-8.894-6.135 28.09 28.09 0 0 1-5.93-9.076 29.548 29.548 0 0 1 .116-22.2 27.856 27.856 0 0 1 14.919-15 27.539 27.539 0 0 1 10.979-2.13 28.5 28.5 0 0 1 14.163 3.536 23.771 23.771 0 0 1 9.534 10.055l17.9-8.379a40.756 40.756 0 0 0-16.524-17.149 49.978 49.978 0 0 0-24.852-6.284 48.009 48.009 0 0 0-44.392 28.269 43.59 43.59 0 0 0-3.9 18.072 44.272 44.272 0 0 0 3.647 18.115 47.728 47.728 0 0 0 44.028 28.709ZM110.019 144.736H85.727l4.585 9.309v71.436l-4.585 9.3h55.749l5.057-17.625h-36.514ZM153.263 234.784H207.6v-17.618h-34.56v-19.748h26.72l4.839-16.929h-31.557v-18.214H207.6v-17.539h-54.337ZM481 234.784h54.332v-17.618h-34.553v-19.748H527.5l4.832-16.929h-31.553v-18.214h34.553v-17.539H481ZM268.518 144.736h-28.1l5.944 11.482-32.452 78.573h20.216l6.888-17.568h36.551l7.085 17.568h20.608ZM247.765 200l11.866-30.258L271.032 200ZM586.959 169.5V210h10.18v-13.695h10.508l2.543-8.905h-13.051v-8.727h14.926V169.5ZM561.795 168.694a21.059 21.059 0 1 0 21.5 21.054 21.3 21.3 0 0 0-21.5-21.054Zm0 32.338a11.286 11.286 0 1 1 11.5-11.284 11.408 11.408 0 0 1-11.5 11.284ZM435.43 236.346a42.943 42.943 0 0 1-15.514-2.635 31.669 31.669 0 0 1-11.568-7.52 33.259 33.259 0 0 1-7.3-11.823 44.207 44.207 0 0 1-2.566-15.416v-54.216h19.983v53.193q0 9.129 4.339 14.394t12.622 5.269q8.283 0 12.622-5.269t4.338-14.394v-53.193h19.983v54.223a44.234 44.234 0 0 1-2.565 15.416 33.41 33.41 0 0 1-7.3 11.824 31.791 31.791 0 0 1-11.568 7.519 43.127 43.127 0 0 1-15.506 2.628ZM995.965 145.523v90.034h-19.917l-43.025-58.5v58.505h-19.082v-81.624l-4.36-8.415h24.67l42.632 59.315v-59.315ZM797.662 237.112a47.681 47.681 0 0 0 18.2-3.308 43.755 43.755 0 0 0 14.431-9.3 42.893 42.893 0 0 0 9.526-14.067 43.953 43.953 0 0 0 3.213-12.349 90.616 90.616 0 0 0 .166-12.568h-45.35l-8.073 16.232h32.358a21.358 21.358 0 0 1-8.466 12.534 25.944 25.944 0 0 1-15.783 4.736 27.231 27.231 0 0 1-11.023-2.3 28.432 28.432 0 0 1-8.894-6.135 28.079 28.079 0 0 1-5.93-9.075 29.551 29.551 0 0 1 .116-22.2 27.859 27.859 0 0 1 14.919-15 27.5 27.5 0 0 1 10.979-2.13 28.49 28.49 0 0 1 14.163 3.536 23.777 23.777 0 0 1 9.534 10.055l17.9-8.379a40.759 40.759 0 0 0-16.525-17.149 49.982 49.982 0 0 0-24.851-6.285 48.009 48.009 0 0 0-44.392 28.269 43.607 43.607 0 0 0-3.9 18.072 44.286 44.286 0 0 0 3.648 18.115 47.138 47.138 0 0 0 25.215 24.953 48.283 48.283 0 0 0 18.813 3.749ZM648.878 145.517h-24.292l4.585 9.309v71.436l-4.585 9.3h55.749l5.058-17.617h-36.515ZM692.122 235.565h54.34v-17.611H711.9V198.2h26.719l4.84-16.929H711.9v-18.214h34.56v-17.54h-54.34ZM850.1 235.565h54.338v-17.611h-34.556V198.2h26.726l4.832-16.929h-31.558v-18.214h34.559v-17.54H850.1ZM1127.235 182.165l-12.441-2.336c-5.6-1.051-8.676-4.119-8.676-8.642 0-6.164 6.468-9.849 12.717-9.849 2.129 0 12.723.54 14.9 10.864l17.142-8.18c-2.529-7.343-10.1-20.075-32.169-20.075-17.8 0-32.278 12.775-32.278 28.475 0 13.315 9.112 23.079 24.365 26.118l12.45 2.46c6.148 1.2 9.818 4.616 9.818 9.132 0 5.844-5.065 9.394-13.218 9.479-9.89.1-17.884-7.086-19.118-14.159l-16.474 8.983c3.779 12.022 15.42 22.7 35.468 22.7 12.615 0 20.4-4.765 24.714-8.762a26.578 26.578 0 0 0 8.7-19.344c-.014-13.549-9.934-23.838-25.9-26.863ZM1078.784 173a44.511 44.511 0 0 0-10.028-14.245 47.454 47.454 0 0 0-14.889-9.5 57.382 57.382 0 0 0-18.108-3.756H1004.6v90.041h31.1a47.864 47.864 0 0 0 33.019-12.91 44.291 44.291 0 0 0 10.049-14.23 44.354 44.354 0 0 0 .015-35.4Zm-18.653 28.205a26.366 26.366 0 0 1-14.315 14.167 27.043 27.043 0 0 1-10.631 2.109h-10.893v-53.609h10.929a27.355 27.355 0 0 1 19.227 7.833 26.884 26.884 0 0 1 7.8 18.988 26.339 26.339 0 0 1-2.114 10.516Z" style="fill:#fff" transform="translate(-85.727 -143.16)"/></svg>